<svg width="32" height="31" viewBox="0 0 32 31" fill="none" xmlns="http://www.w3.org/2000/svg">
<path d="M10.441 24.3375C10.441 24.4625 10.2973 24.5625 10.116 24.5625C9.90977 24.5813 9.76602 24.4813 9.76602 24.3375C9.76602 24.2125 9.90977 24.1125 10.091 24.1125C10.2785 24.0938 10.441 24.1938 10.441 24.3375ZM8.49727 24.0563C8.45352 24.1813 8.57852 24.325 8.76602 24.3625C8.92852 24.425 9.11602 24.3625 9.15352 24.2375C9.19102 24.1125 9.07227 23.9688 8.88477 23.9125C8.72227 23.8688 8.54102 23.9313 8.49727 24.0563ZM11.2598 23.95C11.0785 23.9938 10.9535 24.1125 10.9723 24.2563C10.991 24.3813 11.1535 24.4625 11.341 24.4188C11.5223 24.375 11.6473 24.2563 11.6285 24.1313C11.6098 24.0125 11.441 23.9313 11.2598 23.95ZM15.3723 0C6.70352 0 0.0722656 6.58125 0.0722656 15.25C0.0722656 22.1813 4.43477 28.1125 10.666 30.2C11.466 30.3438 11.7473 29.85 11.7473 29.4438C11.7473 29.0563 11.7285 26.9188 11.7285 25.6063C11.7285 25.6063 7.35352 26.5438 6.43477 23.7438C6.43477 23.7438 5.72227 21.925 4.69727 21.4563C4.69727 21.4563 3.26602 20.475 4.79727 20.4938C4.79727 20.4938 6.35352 20.6188 7.20977 22.1063C8.57852 24.5188 10.8723 23.825 11.766 23.4125C11.9098 22.4125 12.316 21.7188 12.766 21.3063C9.27227 20.9188 5.74727 20.4125 5.74727 14.4C5.74727 12.6813 6.22227 11.8188 7.22227 10.7188C7.05977 10.3125 6.52852 8.6375 7.38477 6.475C8.69102 6.06875 11.6973 8.1625 11.6973 8.1625C12.9473 7.8125 14.291 7.63125 15.6223 7.63125C16.9535 7.63125 18.2973 7.8125 19.5473 8.1625C19.5473 8.1625 22.5535 6.0625 23.8598 6.475C24.716 8.64375 24.1848 10.3125 24.0223 10.7188C25.0223 11.825 25.6348 12.6875 25.6348 14.4C25.6348 20.4313 21.9535 20.9125 18.4598 21.3063C19.0348 21.8 19.5223 22.7375 19.5223 24.2063C19.5223 26.3125 19.5035 28.9188 19.5035 29.4313C19.5035 29.8375 19.791 30.3313 20.5848 30.1875C26.8348 28.1125 31.0723 22.1813 31.0723 15.25C31.0723 6.58125 24.041 0 15.3723 0ZM6.14727 21.5563C6.06602 21.6188 6.08477 21.7625 6.19102 21.8813C6.29102 21.9813 6.43477 22.025 6.51602 21.9438C6.59727 21.8813 6.57852 21.7375 6.47227 21.6188C6.37227 21.5188 6.22852 21.475 6.14727 21.5563ZM5.47227 21.05C5.42852 21.1313 5.49102 21.2313 5.61602 21.2938C5.71602 21.3563 5.84102 21.3375 5.88477 21.25C5.92852 21.1688 5.86602 21.0688 5.74102 21.0063C5.61602 20.9688 5.51602 20.9875 5.47227 21.05ZM7.49727 23.275C7.39727 23.3563 7.43477 23.5438 7.57852 23.6625C7.72227 23.8063 7.90352 23.825 7.98477 23.725C8.06602 23.6438 8.02852 23.4563 7.90352 23.3375C7.76602 23.1938 7.57852 23.175 7.49727 23.275ZM6.78477 22.3563C6.68477 22.4188 6.68477 22.5813 6.78477 22.725C6.88477 22.8688 7.05352 22.9313 7.13477 22.8688C7.23477 22.7875 7.23477 22.625 7.13477 22.4813C7.04727 22.3375 6.88477 22.275 6.78477 22.3563Z" fill="black"/>
</svg>
