<svg width="81" height="16" viewBox="0 0 81 16" fill="none" xmlns="http://www.w3.org/2000/svg">
<path d="M73.3455 5.99107C71.1465 5.76707 69.1625 5.80307 67.0805 5.79807C63.0175 5.78707 58.9555 4.91808 54.8925 4.94808C45.7935 5.02708 36.5535 4.52708 27.4225 5.35008C24.7255 5.58908 22.0315 5.79207 19.3615 6.13608C19.1055 6.16708 18.8515 6.19907 18.5945 6.23507C16.0895 6.56307 12.8195 6.37107 10.3295 6.71507C8.13754 7.17207 6.43854 7.74507 4.33954 7.58907C3.78254 7.48107 3.18954 7.28607 2.85554 6.89107C2.12654 6.04307 1.78754 5.26707 2.14054 4.62007C2.25554 4.40707 2.45354 4.18807 2.66754 3.99107C3.08454 3.62507 3.58454 3.33807 3.85654 3.31307C8.54854 2.81307 13.8715 2.71907 18.1115 2.63007C20.2045 2.58807 22.3655 2.53107 25.0075 2.42207C31.1115 2.26607 40.7365 2.16607 46.8465 2.01607C52.1855 1.88107 57.5385 2.62507 62.8255 3.17807C64.8355 3.38707 66.1015 3.38707 67.9035 3.44407C68.2045 3.44807 68.5445 3.45908 68.8935 3.46908C70.6745 3.52608 73.8825 3.24507 74.9185 3.78607C75.9555 4.33307 76.6795 4.39007 77.5855 5.39507C77.6335 6.38607 77.2685 6.84408 76.8055 7.01008C75.7265 7.40608 74.7375 7.84907 73.8985 7.98507C72.9155 8.14107 72.1225 8.14707 71.9615 7.77207C71.8055 7.39607 71.8935 7.16307 72.0495 6.99107C72.3205 6.71007 72.8095 6.40207 73.2475 6.19407L73.3455 5.99107Z" fill="black"/>
<path d="M30.5588 10.4741C32.2358 10.3861 33.9228 10.2711 35.5948 10.3321C37.7098 10.4061 39.5018 10.6461 41.6008 10.6131C42.3088 10.6041 46.6168 10.6181 47.2048 10.6091C49.0378 10.5771 50.8408 10.5831 52.6688 10.6341C53.8818 10.6701 55.1008 10.7431 56.3048 10.8851C59.1378 11.2181 62.0648 11.4421 64.8518 12.0771C65.5598 12.2391 66.2838 12.3741 66.9968 12.2441C67.7048 12.1191 68.7888 11.7441 68.7158 10.9681C68.6328 10.0611 67.8828 8.93207 66.9808 8.64607C66.7048 8.56207 66.0698 8.17107 65.7888 8.11307C65.5238 8.06107 65.2888 7.87507 65.0438 7.84307C64.4658 7.76507 64.0328 8.03107 63.4968 8.16107C62.8718 8.31207 61.5178 7.88907 60.8718 7.87407C58.5908 7.81707 57.2628 8.39907 54.9808 8.37907C53.6328 8.36907 52.2778 8.32707 50.9288 8.30507C49.6338 8.28407 48.3358 8.32207 47.0438 8.25307C46.1418 8.20707 45.2518 7.96107 44.3568 7.94107C43.5898 7.92507 42.8138 8.06607 42.0598 8.21707C41.4148 8.35207 40.7048 8.29507 40.0498 8.30007C39.4508 8.31107 38.7168 8.16007 38.1588 8.30007C37.4398 8.48307 36.6418 8.48807 35.9088 8.56007C34.5288 8.69607 33.8348 8.45107 32.4608 8.62307C31.6058 8.72707 30.9748 9.05507 30.1218 8.93607C29.6848 8.87307 28.5648 9.15507 28.1278 9.10807C27.6788 9.06607 27.6478 9.38807 27.2428 9.44107C26.7518 9.50207 26.2568 9.48807 25.7678 9.50807C25.5598 9.51907 25.0018 9.49707 24.8568 9.66007C24.6528 9.88407 25.0598 10.3471 25.3658 10.4781C26.4868 10.9671 28.1058 10.5761 29.2878 10.5351C29.7098 10.5211 30.1328 10.5001 30.5588 10.4741Z" fill="black"/>
</svg>
